<svg xmlns="http://www.w3.org/2000/svg" viewBox="0 0 128 128"><defs><style>.cls-1{opacity:0;}.cls-2{fill:#fff;}</style></defs><g id="图层_2" data-name="图层 2"><g id="图层_8" data-name="图层 8"><g class="cls-1"><rect class="cls-2" width="128" height="128"/></g><path class="cls-2" d="M115.31,10a4.81,4.81,0,0,0-7.22-3.75l-19,11.17h0a48.1,48.1,0,0,0-22.67-5.65h0a48.07,48.07,0,0,0-22.67,5.65h0L24.43,6.12a4.8,4.8,0,0,0-7.2,3.54L2.36,128H125.05ZM55.12,59.7a8.77,8.77,0,0,1-17.53,0V47.16a8.77,8.77,0,1,1,17.53,0Zm40.11,0a8.77,8.77,0,0,1-17.53,0V47.16a8.77,8.77,0,1,1,17.53,0Z"/><rect class="cls-2" x="42.8" y="42.05" width="8.28" height="22.76" rx="4.14"/><rect class="cls-2" x="82.91" y="42.05" width="8.28" height="22.76" rx="4.14"/></g></g></svg>