<?xml version="1.0" standalone="no"?><!DOCTYPE svg PUBLIC "-//W3C//DTD SVG 1.1//EN" "http://www.w3.org/Graphics/SVG/1.1/DTD/svg11.dtd"><svg t="1770877987509" class="icon" viewBox="0 0 1024 1024" version="1.1" xmlns="http://www.w3.org/2000/svg" p-id="6470" xmlns:xlink="http://www.w3.org/1999/xlink" width="200" height="200"><path d="M507.84 64 507.392 64 507.2 64 506.88 64 506.816 64c0 0-0.384 0-0.512 0L506.24 64 505.792 64 505.664 64 505.28 64 505.216 64C505.088 64 504.96 64 504.96 64L504.704 64 504.256 64 504.192 64c0 0-0.256 0-0.448 0L503.616 64 503.232 64 503.168 64C502.976 64 502.848 64 502.848 64L502.656 64C502.528 64 502.4 64 502.4 64S502.208 64 502.144 64.064L501.696 64.064 501.632 64.064c0 0-0.32 0-0.448 0L501.056 64.064 500.672 64.064 500.608 64.064c-0.192 0-0.32 0-0.32 0L500.032 64.064c-0.128 0-0.256 0-0.256 0L499.648 64.064 499.136 64.064 499.072 64.064c0 0-0.256 0-0.384 0.064L498.496 64.128 498.112 64.128 498.048 64.128c-0.128 0-0.32 0-0.32 0L497.472 64.128c-0.128 0-0.256 0-0.256 0L497.088 64.128 496.576 64.128 496.448 64.128 496.192 64.128c-0.128 0-0.192 0-0.192 0L495.552 64.192 495.488 64.192c-0.192 0-0.32 0-0.32 0L494.912 64.192c-0.128 0-0.256 0-0.256 0L494.464 64.192 494.08 64.192 493.888 64.192c0 0-0.192 0.064-0.32 0.064L493.44 64.256 492.992 64.256 492.928 64.256c-0.192 0-0.256 0-0.256 0L492.352 64.256c-0.128 0-0.256 0-0.256 0L491.968 64.256 491.52 64.32 491.328 64.32 491.072 64.32 490.88 64.32 490.432 64.32 490.304 64.32 489.984 64.384 489.792 64.384c-0.128 0-0.256 0-0.256 0L489.344 64.384 488.96 64.384 488.832 64.384 488.512 64.384C488.448 64.448 488.448 64.448 488.448 64.448L487.936 64.448 487.808 64.448 487.552 64.448 487.296 64.448 486.848 64.512 486.784 64.512c0 0-0.256 0-0.384 0L486.336 64.512 485.952 64.512 485.824 64.512C485.696 64.576 485.568 64.576 485.568 64.576L485.248 64.576 484.928 64.576 484.8 64.576 484.352 64.64 484.16 64.64 483.968 64.64c-0.128 0-0.192 0-0.192 0L483.392 64.64 483.2 64.704 482.88 64.704 482.688 64.704 482.496 64.704 482.304 64.704 481.856 64.768 481.664 64.768 481.408 64.768 481.216 64.768 480.832 64.832 480.64 64.832 480.448 64.832 480.192 64.832C480.064 64.896 480 64.896 480 64.896L479.616 64.896 479.296 64.896 479.104 64.896 478.848 64.96 478.656 64.96 478.336 64.96 478.08 65.024 477.888 65.024 477.696 65.024c-0.128 0-0.192 0-0.192 0s-0.32 0-0.448 0.064c0 0-0.128 0-0.256 0L476.608 65.088 476.416 65.088 476.032 65.152 475.84 65.152 475.584 65.152 475.392 65.152 475.2 65.216 475.072 65.216c-0.256 0-0.384 0-0.576 0.064 0 0-0.064 0-0.192 0L474.048 65.28 473.92 65.28 473.472 65.344 473.344 65.344 473.152 65.344c-0.128 0-0.192 0-0.256 0.064L472.512 65.408 472.256 65.408 472 65.408c0 0-0.064 0.064-0.192 0.064L471.552 65.472 471.424 65.472C471.296 65.472 471.104 65.472 471.104 65.472L470.784 65.472 470.592 65.472 470.4 65.536 469.952 65.536c0 0-0.128 0-0.128 0.064L469.504 65.6 469.44 65.6c-0.384 0-0.704 0.064-1.024 0.064 0 0-0.064 0-0.128 0.064L468.096 65.728 467.968 65.728c-0.256 0-0.448 0-0.448 0L467.328 65.792 467.008 65.792 466.944 65.856c-0.256 0-0.448 0-0.448 0L466.24 65.856c0 0-0.192 0.064-0.32 0.064L465.792 65.92c-0.256 0.064-0.64 0.064-0.64 0.064L464.832 66.048c-0.128 0-0.192 0-0.192 0L464.448 66.048C464.192 66.112 464 66.112 464 66.112L463.808 66.112c0 0-0.256 0-0.384 0.064L463.36 66.176 462.464 66.24 462.4 66.24 462.016 66.304l0 0L461.312 66.368l0 0L460.928 66.432l0 0c-0.32 0-0.704 0.064-0.704 0.064L459.904 66.56c-0.32 0-0.704 0.064-1.088 0.064l0 0C458.368 66.688 457.92 66.752 457.408 66.816l0 0C457.088 66.88 456.768 66.88 456.384 66.944l0 0C430.656 69.888 405.632 75.008 381.44 82.048c-16.96 5.056-26.56 22.784-21.632 39.68 4.096 14.016 16.896 22.976 30.656 22.976 3.008 0 6.08-0.384 9.088-1.344C434.496 133.184 470.912 128 507.84 128c17.664 0 32-14.336 32-32S525.504 64 507.84 64L507.84 64 507.84 64zM282.816 129.984c-5.888 0-11.904 1.6-17.28 5.056C262.784 136.896 260.032 138.688 257.344 140.48L257.344 140.48c-3.712 2.496-7.36 5.12-11.008 7.744l0 0C244.672 149.376 243.072 150.592 241.408 151.808l0 0C241.152 152 240.896 152.192 240.576 152.384l0 0c-0.256 0.192-0.512 0.448-0.768 0.64L239.744 153.024C238.336 154.048 236.928 155.136 235.52 156.224l0 0C235.328 156.352 235.136 156.48 234.944 156.608l0 0c-0.64 0.512-1.28 1.024-1.792 1.472L233.088 158.08C232.832 158.336 232.576 158.528 232.32 158.656L232.32 158.72C232.064 158.912 231.744 159.104 231.552 159.296L231.424 159.36C231.232 159.552 230.976 159.744 230.72 159.936L230.656 160C230.464 160.192 230.208 160.384 229.952 160.576L229.952 160.64C229.696 160.832 229.44 161.024 229.184 161.216L229.056 161.28C228.864 161.408 228.608 161.6 228.352 161.792L228.288 161.856C228.032 162.048 227.84 162.24 227.584 162.432c0 0.064 0 0.064 0 0.064C227.328 162.688 227.072 162.88 226.816 163.072c0 0.064-0.064 0.064-0.064 0.064C226.496 163.328 226.24 163.52 226.048 163.712 225.984 163.776 225.92 163.776 225.92 163.776 225.664 163.968 225.472 164.096 225.28 164.288c0 0-0.064 0.064-0.064 0.128 0 0-0.128 0.064-0.256 0.128L224.896 164.608C224.768 164.736 224.64 164.864 224.512 164.928c0 0-0.064 0.064-0.128 0.128 0 0-0.128 0.064-0.192 0.192 0 0-0.064 0-0.128 0.064 0 0-0.256 0.192-0.384 0.32 0 0-0.064 0-0.128 0.064L223.424 165.888 223.296 165.952C223.168 166.08 223.04 166.144 222.912 166.208L222.784 166.4 222.656 166.528c0 0-0.064 0.064-0.192 0.128 0 0-0.128 0.128-0.256 0.256 0 0-0.128 0.064-0.128 0.128 0 0-0.128 0.064-0.192 0.128 0 0-0.128 0.064-0.192 0.128 0 0-0.192 0.192-0.256 0.256 0 0-0.128 0.064-0.192 0.128L221.056 167.744 220.928 167.872C220.8 168 220.736 168.064 220.608 168.128L220.544 168.256 220.288 168.448 220.16 168.512C220.032 168.64 220.032 168.704 219.904 168.768L219.712 168.96c0 0.064-0.064 0.064-0.064 0.064L219.456 169.152C219.328 169.28 219.2 169.344 219.2 169.344 219.072 169.408 219.008 169.472 218.944 169.536c0 0-0.128 0.064-0.128 0.128L218.624 169.856C218.56 169.92 218.432 169.984 218.368 170.048c0 0-0.128 0.064-0.192 0.128L217.984 170.368 217.856 170.496C217.728 170.56 217.664 170.624 217.6 170.688L217.408 170.88 217.28 171.008C217.216 171.072 217.152 171.136 217.152 171.136 217.024 171.2 216.96 171.264 216.896 171.328L216.704 171.52C216.576 171.584 216.576 171.648 216.576 171.648 216.448 171.712 216.384 171.776 216.384 171.776 216.256 171.904 216.192 171.904 216.192 171.904 216.064 172.032 216 172.032 215.872 172.16L215.744 172.288C215.68 172.352 215.616 172.352 215.616 172.352 215.488 172.48 215.424 172.544 215.424 172.544 215.296 172.608 215.168 172.736 215.168 172.736 215.04 172.864 215.04 172.928 215.04 172.928 214.912 172.992 214.848 173.056 214.784 173.12c0 0-0.128 0.064-0.128 0.128 0 0-0.256 0.128-0.32 0.256 0 0-0.128 0.064-0.128 0.128L214.08 173.76 213.952 173.888C213.824 174.016 213.696 174.08 213.632 174.144L213.568 174.272 213.312 174.4C213.248 174.528 213.184 174.528 213.184 174.528 213.056 174.656 212.928 174.72 212.864 174.784L212.736 174.848C212.672 174.976 212.544 175.04 212.544 175.04L212.416 175.168C212.288 175.296 212.16 175.36 212.032 175.488L211.968 175.552 211.776 175.744C211.712 175.808 211.712 175.808 211.712 175.808 211.584 175.936 211.456 176.064 211.328 176.128c0 0.064 0 0.064 0 0.064C211.2 176.32 211.072 176.384 211.008 176.448L210.944 176.512C210.816 176.64 210.688 176.704 210.56 176.832l0 0.064C210.432 176.96 210.304 177.024 210.24 177.152L210.176 177.216C210.048 177.28 209.92 177.344 209.792 177.472l0 0C209.664 177.6 209.536 177.664 209.472 177.728c0 0-0.064 0.064-0.064 0.128C209.344 177.92 209.216 178.048 209.088 178.112l0 0.064C208.96 178.24 208.832 178.368 208.832 178.368 208.704 178.496 208.704 178.496 208.704 178.496 208.576 178.624 208.448 178.688 208.32 178.816c0 0 0 0 0 0.064 0 0-0.256 0.128-0.32 0.256L207.936 179.136C207.68 179.392 207.424 179.648 207.232 179.84L207.168 179.904C206.912 180.032 206.72 180.224 206.528 180.48L206.464 180.48C206.272 180.736 206.016 180.928 205.76 181.12c0 0.064 0 0.064 0 0.064-0.256 0.192-0.512 0.448-0.768 0.64l0 0.064c-0.256 0.192-0.512 0.448-0.704 0.64L204.224 182.528C204.032 182.72 203.84 182.976 203.584 183.168l0 0c-12.096 11.2-23.616 23.04-34.368 35.52-11.648 13.376-10.112 33.536 3.2 45.184 6.08 5.248 13.504 7.808 20.928 7.808 9.024 0 17.856-3.776 24.192-11.072 24.064-27.776 51.904-51.904 82.688-71.68C315.072 179.392 319.296 159.552 309.76 144.704 303.616 135.168 293.312 129.984 282.816 129.984L282.816 129.984zM129.28 307.328c-12.096 0-23.744 6.912-29.12 18.688-17.408 38.272-29.696 79.296-35.84 122.432C61.824 465.92 73.92 482.112 91.456 484.608 92.992 484.8 94.528 484.928 96 484.928c15.68 0 29.376-11.584 31.68-27.52C132.8 421.12 143.104 385.856 158.336 352.64c7.36-16.128 0.32-35.072-15.744-42.432C138.24 308.224 133.696 307.328 129.28 307.328L129.28 307.328zM96.064 539.456c-1.472 0-3.008 0.128-4.544 0.384C73.984 542.336 61.824 558.528 64.384 576 65.216 581.888 66.176 587.776 67.2 593.536l0 0c0.128 0.32 0.128 0.64 0.256 0.96L67.456 594.56c0 0.32 0.128 0.64 0.128 0.96l0 0.064c0.064 0.192 0.128 0.32 0.128 0.32 0 0.192 0 0.128 0 0.192 0 0.128 0.064 0.32 0.128 0.448 0 0.064 0 0.064 0 0.064 0 0.128 0 0.32 0.064 0.448l0 0.064c0.064 0.128 0.064 0.32 0.064 0.448 0 0.064 0 0.064 0 0.064 0.064 0.128 0.128 0.256 0.128 0.448l0 0.064c0.064 0.32 0.128 0.64 0.192 0.96L68.288 599.04c0 0.192 0 0.32 0.064 0.448l0 0c0 0.192 0.064 0.32 0.064 0.448 0 0.064 0 0.128 0 0.128C68.48 600.192 68.48 600.32 68.544 600.448c0 0.064 0 0.064 0 0.064 0 0.192 0.064 0.32 0.128 0.512l0 0.064c0 0.128 0 0.256 0.064 0.384 0 0 0 0.064 0 0.128 0.064 0.128 0.064 0.256 0.128 0.384l0 0.128c0.064 0.128 0.064 0.256 0.064 0.384 0 0 0 0.064 0 0.128 0.064 0.128 0.128 0.256 0.128 0.384l0 0.128C69.12 603.2 69.12 603.328 69.12 603.328 69.184 603.456 69.184 603.52 69.184 603.584c0 0 0 0.192 0.064 0.32l0 0.128C69.312 604.16 69.312 604.224 69.376 604.352l0 0.192c0.064 0.128 0.064 0.192 0.064 0.32 0 0 0 0.064 0.064 0.128 0 0.128 0.064 0.256 0.064 0.384l0.064 0.192c0 0.064 0 0.192 0 0.192 0.064 0.128 0.064 0.192 0.064 0.256 0 0.128 0.064 0.256 0.128 0.384l0 0.192c0 0 0.064 0.192 0.064 0.256l0.064 0.192c0 0.128 0 0.256 0.064 0.32 0 0 0 0.192 0.064 0.256 0 0 0 0.192 0 0.256L70.144 608c0.064 0.128 0.064 0.192 0.064 0.192 0 0.192 0.064 0.32 0.064 0.384 0 0 0.064 0.192 0.064 0.256l0 0.192C70.4 609.152 70.4 609.216 70.4 609.216c0.064 0.128 0.064 0.256 0.064 0.384 0.064 0.064 0.064 0.192 0.064 0.192C70.592 609.856 70.592 609.92 70.592 609.984c0 0.128 0.064 0.128 0.064 0.256l0.064 0.192c0 0.128 0 0.256 0.064 0.384 0 0.064 0.064 0.128 0.064 0.192 0 0 0 0.128 0 0.256l0.064 0.128c0.064 0.128 0.064 0.192 0.064 0.256 0 0.128 0.064 0.256 0.064 0.256C71.04 612.096 71.04 612.096 71.04 612.16c0 0 0.064 0.192 0.064 0.256l0.064 0.192c0 0.128 0 0.256 0.064 0.384 0 0.064 0.064 0.128 0.064 0.192 0 0.128 0 0.192 0.064 0.256l0 0.192C71.424 613.76 71.424 613.952 71.488 614.08c0 0 0 0.064 0.064 0.128 0 0.128 0 0.192 0 0.256l0.064 0.192C71.68 614.784 71.68 614.976 71.744 615.168l0 0c0.064 0.128 0.064 0.192 0.064 0.32l0.064 0.064c0.064 0.32 0.128 0.64 0.192 0.896 0 0.064 0 0.128 0 0.192 0 0 0.064 0.128 0.128 0.256 0 0 0 0.064 0 0.128 0 0 0.064 0.32 0.128 0.448L72.32 617.6c0.064 0.064 0.064 0.128 0.128 0.256l0 0.128c0 0.128 0.064 0.32 0.128 0.448l0 0.192c0 0.064 0.064 0.128 0.064 0.256l0.064 0.064c0.064 0.384 0.128 0.64 0.192 0.96L72.96 620.032c0.064 0.256 0.128 0.576 0.192 0.896 0 0 0.064 0.064 0.064 0.128 0 0 0 0.128 0.064 0.256l0 0.064c0.064 0.192 0.064 0.384 0.128 0.576l0.064 0.064c0 0.128 0 0.192 0.064 0.32l0 0.064c0.064 0.192 0.064 0.384 0.192 0.576 0 0.064 0 0.064 0 0.064 0 0.128 0 0.192 0.064 0.32l0 0.064c0.064 0.192 0.128 0.448 0.192 0.64l0 0c0 0.128 0 0.192 0.064 0.32l0 0.064C74.048 624.64 74.176 624.96 74.24 625.28l0.064 0.064c0.064 0.32 0.128 0.64 0.192 0.96l0.064 0.064c0 0.128 0 0.192 0.064 0.32l0 0c0.064 0.256 0.128 0.448 0.192 0.64l0 0.064c0 0.128 0 0.192 0.064 0.32l0 0.064c0.064 0.32 0.192 0.64 0.256 0.96 0 0 0.064 0 0.064 0.064 0.064 0.32 0.128 0.64 0.256 0.96 0 0 0 0 0 0.064 0.064 0.32 0.192 0.64 0.256 0.96l0 0c0.128 0.384 0.192 0.704 0.256 1.024l0 0c0.064 0.128 0.128 0.256 0.128 0.256 0 0.128 0 0.128 0 0.128C76.16 632.32 76.224 632.64 76.288 632.96c0 0.064 0 0.064 0 0.064C76.416 633.344 76.544 633.6 76.608 633.92l0 0.064C76.672 634.304 76.8 634.624 76.864 634.944l0.064 0.064c0.064 0.32 0.128 0.64 0.256 0.96l0 0.064C77.312 636.416 77.44 636.8 77.568 637.248l0 0.064c0.128 0.32 0.192 0.64 0.32 0.96l0 0.064c0.064 0.32 0.192 0.64 0.32 0.96l0 0c0.064 0.384 0.128 0.704 0.256 1.024l0 0c0.128 0.384 0.192 0.704 0.32 1.024l0 0c0.064 0.128 0.064 0.256 0.064 0.256l0 0.064c0.128 0.384 0.256 0.704 0.32 1.024 0 0 0.064 0 0.064 0.064 0.064 0.256 0.128 0.64 0.256 0.896l0 0.064c0.128 0.32 0.256 0.64 0.32 0.96l0 0.064c0.128 0.32 0.192 0.64 0.32 0.96 0 0 0 0 0 0.064 0 0 0.064 0.192 0.128 0.32l0 0c0.064 0.32 0.192 0.64 0.256 1.024l0 0c0.128 0.32 0.256 0.64 0.384 0.96 0 0 0 0 0 0.064 0.064 0.32 0.192 0.64 0.256 0.96l0 0c0.128 0.32 0.256 0.64 0.384 1.024l0 0c0.128 0.448 0.256 0.896 0.384 1.344l0 0c0.256 0.64 0.448 1.28 0.704 1.92l0 0c0.32 1.152 0.704 2.176 1.088 3.264l0 0c0.128 0.32 0.256 0.704 0.384 1.024l0 0c0.064 0.32 0.192 0.64 0.32 0.96l0 0c4.736 13.76 10.112 27.136 16.128 40.256 5.376 11.712 16.96 18.56 29.056 18.56 4.416 0 9.024-0.96 13.312-2.944 16.064-7.36 23.104-26.304 15.744-42.368-15.232-33.344-25.6-68.544-30.784-104.832C125.44 550.976 111.744 539.456 96.064 539.456L96.064 539.456zM193.536 752.64c-7.36 0-14.848 2.56-20.928 7.808-13.312 11.648-14.72 31.808-3.2 45.12l0 0.064c0.128 0.128 0.256 0.256 0.32 0.32l0.064 0.064c0.064 0.128 0.192 0.192 0.256 0.32L170.112 806.4c0.128 0.128 0.192 0.256 0.32 0.384l0 0c0.128 0.128 0.192 0.192 0.32 0.32 0 0.064 0 0.064 0 0.064 0.128 0.128 0.256 0.256 0.32 0.384l0 0c0.128 0.128 0.256 0.192 0.384 0.32 0 0.064 0 0.064 0 0.064 0.192 0.256 0.448 0.512 0.64 0.704l0.064 0.064c0.192 0.256 0.384 0.512 0.64 0.704l0 0.064c0.192 0.256 0.448 0.448 0.64 0.704l0.064 0.064c0.192 0.256 0.384 0.448 0.64 0.704l0 0.064c0.256 0.256 0.448 0.448 0.64 0.704l0.064 0.064c0.256 0.256 0.448 0.448 0.704 0.704 0 0 0 0 0 0.064 0.192 0.192 0.448 0.448 0.64 0.704l0 0c0.256 0.256 0.512 0.512 0.704 0.768l0 0c0.256 0.256 0.448 0.512 0.704 0.704l0 0.064c0.256 0.256 0.448 0.512 0.704 0.704l0 0.064c0.192 0.192 0.448 0.448 0.704 0.704l0 0c0.192 0.256 0.448 0.512 0.64 0.768l0 0c0.256 0.256 0.512 0.512 0.704 0.768l0.064 0c0.192 0.256 0.448 0.512 0.64 0.704l0 0c25.28 27.008 53.888 50.816 85.056 70.912 5.376 3.456 11.392 5.056 17.344 5.056 10.496 0 20.8-5.184 26.944-14.656 9.536-14.848 5.248-34.688-9.6-44.224-30.784-19.84-58.688-43.904-82.752-71.616C211.456 756.352 202.56 752.64 193.536 752.64L193.536 752.64zM390.912 879.36c-13.888 0-26.624 9.024-30.72 22.976-4.928 16.96 4.736 34.688 21.696 39.68 0.448 0.128 0.896 0.256 1.344 0.384l0 0c0 0 0.192 0.064 0.32 0.064l0.064 0c0.32 0.128 0.64 0.192 0.896 0.32l0.128 0 0.192 0.064c0.128 0 0.128 0 0.128 0.064 0 0 0.384 0.064 0.576 0.128l0.128 0.064c0 0 0.192 0 0.256 0.064L385.92 943.168c0.128 0.064 0.256 0.128 0.256 0.128L386.56 943.36l0.192 0.064 0.192 0.064 0.256 0.064 0.256 0.064c0.128 0.064 0.192 0.064 0.192 0.064l0.32 0.064c0.064 0.064 0.128 0.064 0.128 0.064l0.384 0.064c0.064 0.064 0.128 0.064 0.128 0.064 0.128 0.064 0.256 0.064 0.384 0.128l0.128 0 0.256 0.064c0.064 0.064 0.128 0.064 0.128 0.064s0.32 0.064 0.448 0.128l0.128 0.064c0 0 0.192 0 0.32 0.064l0.128 0c0.128 0.064 0.256 0.128 0.256 0.128l0.256 0c0 0 0.256 0.064 0.384 0.128l0.128 0.064 0.384 0.064 0 0c0.128 0.064 0.32 0.064 0.448 0.128L392.32 944.96c0 0 0.256 0.064 0.384 0.128l0.128 0c0 0 0.256 0.128 0.384 0.128l0.064 0c0.128 0.064 0.32 0.064 0.32 0.064l0.192 0.064c0.32 0.128 0.576 0.192 0.896 0.256l0.064 0c0.128 0.064 0.256 0.128 0.448 0.128l0 0c0.32 0.064 0.64 0.192 0.64 0.192l0.32 0.064c0.32 0.064 0.64 0.192 0.96 0.256l0.064 0c25.28 6.464 51.456 10.752 78.272 12.608l0 0.064c0.384 0 0.704 0 1.024 0l0 0.064c0 0 1.024 0.064 1.472 0.064l0 0 1.024 0.064 0.064 0c0 0 1.024 0.064 1.472 0.128l0 0 1.024 0.064 0 0c0.32 0 0.704 0 1.024 0.064l0.064 0c0 0 0.256 0 0.448 0l0 0 1.024 0.064 0.064 0c0.32 0 0.64 0 0.96 0.064l0.064 0c0 0 0.32 0 0.512 0l0 0c0 0 0.32 0.064 0.512 0.064l0 0L486.4 959.552l0.064 0c0.32 0 0.64 0 1.024 0.064l0.064 0 0.96 0 0.064 0.064L488.96 959.68l0 0c0.192 0 0.384 0 0.384 0l0.192 0 0.448 0 0.064 0c0.32 0.064 0.64 0.064 0.64 0.064l0.384 0c0.192 0 0.32 0 0.32 0L491.52 959.744c0.192 0 0.32 0.064 0.32 0.064l0.256 0 0.384 0 0.064 0 1.024 0 0.064 0c0.128 0 0.32 0.064 0.32 0.064L494.08 959.872l0.448 0 0.064 0 0.448 0 0.064 0c0 0 0.384 0 0.512 0l0 0 0.448 0.064 0.128 0c0.128 0 0.32 0 0.32 0l0.128 0 0.512 0 0.064 0 0.448 0 0.064 0c0 0 0.32 0 0.448 0l0.128 0L498.56 959.936l0.128 0c0.128 0.064 0.256 0.064 0.256 0.064l0.192 0 0.448 0 0.128 0c0 0 0.256 0 0.384 0l0.128 0c0 0 0.256 0 0.448 0l0.064 0 0.384 0 0.128 0c0.192 0 0.32 0 0.32 0l0.192 0 0.448 0L502.272 960c0 0 0.256 0 0.384 0l0.064 0c0 0 0.32 0 0.512 0l0.128 0 0.32 0 0.128 0c0.192 0 0.32 0 0.32 0L504.32 960l0.384 0 0.128 0c0 0 0.256 0 0.384 0l0.064 0 0.448 0 0.128 0 0.384 0 0.128 0c0.128 0 0.32 0 0.32 0L506.88 960l0.384 0 0.128 0 0.448 0c17.664 0 32-14.336 32-32S525.504 896 507.84 896c-36.736 0-73.088-5.184-107.968-15.36C396.864 879.744 393.856 879.36 390.912 879.36L390.912 879.36zM733.056 829.76c-5.952 0-11.968 1.664-17.344 5.12-30.784 19.968-64.256 35.264-99.328 45.568-16.96 4.992-26.624 22.72-21.632 39.744 4.032 13.952 16.832 22.912 30.656 22.912 3.008 0 6.016-0.384 9.024-1.28 41.472-12.224 80.576-30.336 116.096-53.312 14.72-9.536 19.008-29.312 9.408-44.096C753.856 834.944 743.552 829.76 733.056 829.76L733.056 829.76zM886.592 652.288c-12.096 0-23.744 6.976-29.12 18.752-15.168 33.344-35.072 64.256-59.136 92.032-11.52 13.376-10.048 33.6 3.328 45.184 6.08 5.184 13.504 7.744 20.928 7.744 8.96 0 17.856-3.776 24.192-11.072 0.128-0.128 0.192-0.256 0.32-0.384l0 0c0.128-0.128 0.256-0.256 0.32-0.384l0 0c0.128-0.128 0.256-0.256 0.32-0.384l0.064 0c0.064-0.128 0.192-0.192 0.32-0.32 0-0.064 0-0.064 0-0.064 0.128-0.128 0.192-0.256 0.32-0.384l0 0c0.064-0.128 0.192-0.192 0.32-0.32 0-0.064 0-0.064 0-0.064 0.128-0.128 0.256-0.256 0.32-0.384l0.064-0.064c0.064-0.064 0.128-0.192 0.128-0.192 0.128-0.128 0.128-0.128 0.128-0.128 0.128-0.128 0.256-0.256 0.384-0.384l0-0.064c0.128-0.064 0.192-0.192 0.192-0.192l0.128-0.192c0.128-0.128 0.192-0.192 0.32-0.32l0-0.064c0.128-0.128 0.192-0.192 0.256-0.256l0.128-0.128c0.064-0.128 0.128-0.256 0.128-0.256 0.128-0.128 0.128-0.128 0.128-0.128 0.128-0.128 0.192-0.192 0.256-0.256l0.128-0.128c0.064-0.128 0.128-0.192 0.192-0.256l0.192-0.192c0-0.064 0.128-0.128 0.128-0.192l0.128-0.192c0.128-0.064 0.128-0.128 0.128-0.128 0.128-0.128 0.192-0.192 0.192-0.192s0.192-0.256 0.256-0.32c0 0 0.064-0.064 0.128-0.128l0.064-0.128c0.128-0.192 0.192-0.256 0.192-0.256 0.128-0.128 0.192-0.192 0.256-0.256l0.128-0.192c0.064-0.064 0.064-0.128 0.064-0.128 0.128-0.128 0.192-0.192 0.192-0.192 0.128-0.128 0.192-0.192 0.256-0.256l0.128-0.192c0.064-0.064 0.064-0.128 0.064-0.128 0.192-0.128 0.256-0.256 0.384-0.384l0.064-0.128 0.192-0.192 0.064-0.064c0.192-0.256 0.384-0.512 0.576-0.704 0-0.064 0.064-0.064 0.064-0.064 0.192-0.32 0.384-0.512 0.576-0.768l0.064-0.064c0.192-0.256 0.448-0.512 0.64-0.768l0 0c0.448-0.576 0.832-1.088 1.28-1.536l0 0c10.368-12.992 20.032-26.496 28.928-40.576 0 0 0 0 0-0.064 0.192-0.256 0.384-0.512 0.512-0.832l0.064 0c0.192-0.32 0.32-0.576 0.512-0.832l0.064-0.064c0.128-0.256 0.32-0.576 0.448-0.832 0 0 0.064 0 0.064-0.064 0 0 0.128-0.192 0.128-0.256l0.064-0.064c0.128-0.128 0.192-0.32 0.32-0.448l0-0.064c0.128-0.128 0.128-0.192 0.192-0.32 0 0 0.064 0 0.064-0.064 0.064-0.128 0.192-0.256 0.256-0.448 0-0.064 0.064-0.064 0.064-0.064 0.064-0.128 0.128-0.192 0.192-0.256l0.064-0.128c0.064-0.128 0.128-0.256 0.192-0.384l0.128-0.128c0-0.128 0.064-0.192 0.128-0.256 0 0 0.064-0.064 0.064-0.128 0.064-0.128 0.192-0.256 0.192-0.256l0.128-0.256c0 0 0.128-0.128 0.128-0.192l0.064-0.128c0.128-0.192 0.192-0.256 0.192-0.384l0.192-0.192c0-0.064 0.064-0.128 0.064-0.192l0.128-0.128c0.064-0.192 0.128-0.256 0.128-0.256 0.128-0.128 0.128-0.256 0.128-0.256 0.128-0.128 0.128-0.192 0.192-0.256l0.128-0.192c0-0.064 0.064-0.128 0.064-0.192 0 0 0.128-0.192 0.256-0.32l0.064-0.128c0.064-0.128 0.064-0.192 0.128-0.256l0.064-0.128c0.128-0.128 0.192-0.256 0.256-0.384 0 0 0.064-0.064 0.064-0.128 0 0 0.128-0.192 0.192-0.256l0.064-0.128c0.064-0.128 0.128-0.256 0.192-0.384 0 0 0.064-0.064 0.064-0.128 0 0 0.128-0.128 0.192-0.256 0 0 0-0.064 0.064-0.128 0.064-0.128 0.128-0.256 0.192-0.384l0.064-0.064c0.064-0.128 0.128-0.192 0.192-0.32l0.064-0.128c0.064-0.128 0.192-0.256 0.192-0.384 0 0 0.064 0 0.064-0.064 0 0 0.128-0.192 0.192-0.32l0.064-0.064c0.064-0.128 0.192-0.256 0.256-0.448l0 0c0.064-0.128 0.192-0.256 0.192-0.384l0.064-0.064c0.192-0.256 0.32-0.576 0.512-0.832l0-0.064c0.192-0.256 0.32-0.576 0.512-0.832l0-0.064c0.192-0.256 0.32-0.576 0.512-0.832l0 0c0.192-0.32 0.32-0.576 0.512-0.896l0 0c0.192-0.32 0.32-0.576 0.512-0.896l0 0c6.656-11.648 12.672-23.552 18.304-35.776 7.296-16.128 0.256-35.072-15.872-42.368C895.488 653.248 891.008 652.288 886.592 652.288L886.592 652.288zM919.552 420.096c-1.472 0-3.008 0.128-4.544 0.32-17.472 2.56-29.696 18.752-27.136 36.224C890.496 474.88 891.84 493.504 891.84 512c0 18.112-1.28 36.352-3.84 54.272-2.432 17.472 9.728 33.6 27.264 36.096 1.472 0.192 3.008 0.32 4.48 0.32 15.616 0 29.312-11.52 31.616-27.392 0.448-3.392 0.96-6.72 1.344-10.048L952.704 565.184c0-0.128 0-0.256 0.064-0.32L952.768 564.8c0-0.192 0.064-0.448 0.064-0.64L952.832 564.096c0-0.128 0-0.192 0-0.192 0-0.128 0.064-0.192 0.064-0.256 0 0 0-0.192 0-0.256C952.96 563.328 952.96 563.2 952.96 563.072L952.96 562.88c0-0.064 0-0.128 0.064-0.256 0-0.064 0-0.128 0-0.192 0 0 0.064-0.192 0.064-0.32L953.088 561.984c0-0.128 0-0.256 0-0.384 0-0.064 0.064-0.128 0.064-0.192L953.152 561.216c0 0 0.064-0.128 0.064-0.192 0-0.128 0-0.256 0-0.384 0 0 0-0.064 0-0.128 0.064-0.128 0.064-0.256 0.064-0.384 0 0 0-0.064 0-0.128 0.064-0.128 0.064-0.256 0.064-0.384l0 0c0-0.192 0-0.384 0.064-0.512L953.408 559.04c0-0.128 0-0.256 0.064-0.448l0 0c0-0.32 0.064-0.64 0.064-1.024l0 0c1.024-9.728 1.664-19.648 2.048-29.632l0 0c0-0.32 0-0.64 0-1.024l0 0c0-0.512 0-1.024 0.064-1.408L955.648 525.504c0-0.32 0-0.64 0-1.024l0 0c0-0.128 0.064-0.32 0.064-0.448L955.712 524.032c0-0.32 0-0.64 0-0.96 0-0.064 0-0.064 0-0.064 0-0.32 0-0.64 0-0.96 0-0.064 0-0.064 0-0.064 0-0.128 0-0.32 0-0.448L955.712 521.472c0-0.32 0-0.64 0.064-0.96L955.776 520.512c0-0.128 0-0.32 0-0.448L955.776 520c0-0.128 0-0.32 0-0.448L955.776 519.488c0-0.128 0-0.32 0-0.448L955.776 518.976c0-0.32 0-0.64 0-0.96l0.064-0.128c0-0.128 0-0.256 0-0.384L955.84 517.504c0-0.128 0-0.32 0-0.512l0 0c0-0.192 0-0.32 0-0.448L955.84 516.416c0-0.128 0-0.256 0-0.384L955.84 515.968c0 0 0-0.32 0-0.448 0 0 0-0.064 0-0.128 0-0.128 0-0.256 0-0.384L955.84 515.008c0-0.192 0-0.32 0-0.512 0 0 0 0 0-0.064 0-0.128 0-0.256 0-0.384 0 0 0-0.064 0-0.128 0-0.128 0-0.256 0-0.384L955.84 513.472c0-0.192 0-0.32 0-0.32 0-0.192 0-0.256 0-0.256 0-0.128 0-0.256 0-0.384L955.84 512.448c0-0.128 0-0.32 0-0.448l0 0c0-0.128 0-0.32 0-0.448 0-0.064 0-0.128 0-0.128 0-0.128 0-0.256 0-0.384 0-0.064 0-0.064 0-0.064 0-0.192 0-0.384 0-0.512L955.84 510.464c0-0.192 0-0.32 0-0.384L955.84 509.888c0-0.128 0-0.256 0-0.448L955.84 509.376c0-0.128 0-0.256 0-0.384 0-0.064 0-0.128 0-0.128 0-0.128 0-0.256 0-0.384 0-0.064 0-0.064 0-0.064 0-0.192 0-0.32 0-0.512L955.84 507.904c0-0.192 0-0.32 0-0.448L955.84 507.392c0-0.192 0-0.32 0-0.512L955.84 506.816c0-0.128 0-0.256 0-0.384 0-0.064 0-0.064 0-0.064 0-0.192-0.064-0.384-0.064-0.512l0 0c0-0.192 0-0.32 0-0.512L955.776 505.28c0-0.128 0-0.256 0-0.384 0 0 0 0 0-0.064 0-0.192 0-0.32 0-0.448 0-0.064 0-0.064 0-0.064 0-0.192 0-0.32 0-0.448L955.776 503.744c0-0.32 0-0.64-0.064-0.96L955.712 502.72c0-0.128 0-0.32 0-0.448 0 0 0 0 0-0.064 0-0.128 0-0.32 0-0.448 0-0.064 0-0.064 0-0.064 0-0.192 0-0.32 0-0.448L955.712 501.248c0-0.192 0-0.32 0-0.512l0 0c0-0.192 0-0.32 0-0.512L955.712 500.16c0-0.32-0.064-0.64-0.064-0.96L955.648 499.2c0-0.128 0-0.32 0-0.448 0 0 0 0 0-0.064 0-0.128 0-0.32 0-0.512l0 0c-0.064-0.192-0.064-0.32-0.064-0.448L955.584 497.664c0-0.32 0-0.704 0-1.024L955.584 496.64c0-0.32 0-0.64-0.064-0.96L955.52 495.616c0-0.128 0-0.32 0-0.448L955.52 495.104c0-0.32 0-0.64-0.064-1.024l0 0c0-0.32 0-0.704 0-1.024l0 0c0-0.192 0-0.384 0-0.512l0 0c-0.064-0.384-0.064-0.704-0.064-1.024L955.392 491.584c-0.448-9.28-1.152-18.496-2.112-27.648l0 0c-0.064-0.512-0.064-1.024-0.128-1.472l-0.064 0c0-0.32 0-0.64-0.064-0.96 0-0.064 0-0.064 0-0.064-0.064-0.32-0.064-0.704-0.128-0.96 0-0.064 0-0.064 0-0.064 0-0.192-0.064-0.32-0.064-0.448L952.832 459.968c0-0.192 0-0.32-0.064-0.448 0 0 0-0.064 0-0.128 0-0.128 0-0.256-0.064-0.384 0 0 0-0.064 0-0.128 0-0.128 0-0.256 0-0.384l-0.064-0.064c0-0.128 0-0.256-0.064-0.448 0 0 0-0.064 0-0.128 0-0.128 0-0.192 0-0.32 0-0.064 0-0.064 0-0.064-0.064-0.192-0.064-0.384-0.128-0.512L952.448 456.896c0-0.128 0-0.192 0-0.32l-0.064-0.192c0-0.064 0-0.192 0-0.192C952.32 456 952.32 455.936 952.32 455.808c0 0 0-0.128 0-0.256l-0.064-0.192c0-0.064 0-0.128 0-0.256 0-0.064-0.064-0.128-0.064-0.192 0-0.128 0-0.256 0-0.256 0-0.192-0.064-0.256-0.064-0.384 0-0.064 0-0.064 0-0.064 0-0.192-0.064-0.256-0.064-0.384L952.064 453.824c0-0.192-0.064-0.384-0.064-0.576L952 453.184c-0.064-0.128-0.064-0.256-0.064-0.32L951.936 452.8c-0.064-0.384-0.128-0.704-0.128-1.024L951.808 451.776c-0.192-1.344-0.384-2.816-0.64-4.224C948.864 431.552 935.168 420.096 919.552 420.096L919.552 420.096zM821.76 207.04c-7.424 0-14.912 2.56-20.928 7.872-13.376 11.584-14.72 31.808-3.2 45.12 24.128 27.776 44.032 58.624 59.392 91.904 5.376 11.776 16.96 18.624 29.056 18.624 4.48 0 9.024-0.96 13.376-2.944 16-7.296 23.04-26.24 15.744-42.304-2.56-5.632-5.248-11.2-8.064-16.704l0 0c-0.192-0.256-0.32-0.576-0.448-0.896l-0.064 0c-0.064-0.128-0.064-0.192-0.128-0.32l0 0c-0.128-0.192-0.192-0.384-0.32-0.576L906.176 306.816c0 0-0.128-0.192-0.128-0.256l-0.064-0.064c-0.064-0.192-0.192-0.384-0.256-0.512L905.664 305.92c0-0.128-0.064-0.192-0.128-0.256 0 0 0-0.064-0.064-0.128-0.064-0.192-0.128-0.32-0.192-0.448 0 0-0.064-0.064-0.064-0.128 0 0-0.064-0.128-0.128-0.256 0 0-0.064-0.064-0.064-0.128-0.064-0.128-0.128-0.256-0.256-0.384l-0.064-0.128c-0.064-0.128-0.064-0.192-0.128-0.256 0 0-0.064-0.064-0.064-0.128-0.064-0.128-0.128-0.256-0.192-0.384L904.32 303.168c-0.064-0.064-0.128-0.128-0.128-0.192l-0.128-0.192c0-0.064-0.064-0.128-0.064-0.128-0.064-0.192-0.128-0.32-0.192-0.384L903.68 302.144c0-0.064-0.064-0.128-0.064-0.192l-0.064-0.128c-0.128-0.192-0.192-0.32-0.256-0.384l-0.064-0.192c-0.064-0.064-0.064-0.128-0.128-0.256L903.04 300.864c-0.064-0.128-0.128-0.256-0.192-0.384-0.064-0.064-0.064-0.064-0.064-0.064-0.064-0.192-0.128-0.256-0.128-0.256-0.064-0.128-0.128-0.192-0.128-0.192-0.064-0.128-0.128-0.256-0.192-0.384L902.336 299.52c-0.064-0.128-0.128-0.192-0.128-0.256l-0.128-0.192c0-0.064-0.128-0.192-0.128-0.32l-0.128-0.128c0-0.128-0.064-0.192-0.128-0.32l-0.064-0.128c-0.064-0.128-0.128-0.256-0.192-0.32 0 0-0.064-0.064-0.064-0.128-0.064-0.128-0.128-0.192-0.192-0.32L901.12 297.344c-0.064-0.128-0.128-0.256-0.192-0.384l-0.064-0.064c-0.064-0.128-0.128-0.192-0.192-0.32 0 0 0-0.064-0.064-0.128-0.064-0.128-0.128-0.256-0.192-0.384l0 0c-0.064-0.128-0.128-0.256-0.256-0.384 0 0 0-0.064 0-0.128-0.128-0.128-0.128-0.256-0.256-0.384l0 0c-0.064-0.128-0.128-0.256-0.192-0.384 0 0-0.064-0.064-0.064-0.128-0.128-0.256-0.32-0.512-0.448-0.832L899.2 293.824c-0.128-0.256-0.256-0.512-0.448-0.832l-0.064-0.064c-0.128-0.256-0.256-0.512-0.448-0.832l0 0c-0.192-0.32-0.32-0.576-0.512-0.896l0 0c-0.192-0.32-0.32-0.576-0.512-0.896l0 0c-0.192-0.32-0.32-0.576-0.512-0.896l0 0c-12.416-21.76-26.688-42.304-42.432-61.568l0 0c-0.256-0.256-0.448-0.512-0.64-0.768l-0.064 0c-0.192-0.256-0.448-0.512-0.64-0.768L852.928 226.368c-0.128-0.128-0.192-0.256-0.32-0.384l0 0c-0.128-0.064-0.192-0.192-0.32-0.32l-0.064-0.064c-0.064-0.128-0.128-0.256-0.256-0.32L851.968 225.28c-0.128-0.128-0.192-0.256-0.32-0.384l-0.064-0.064c-0.064-0.064-0.128-0.192-0.128-0.192-0.128-0.128-0.128-0.128-0.128-0.128-0.128-0.128-0.256-0.256-0.32-0.384l-0.064-0.064c-0.128-0.064-0.128-0.192-0.128-0.192-0.128-0.128-0.192-0.128-0.192-0.128-0.064-0.128-0.192-0.256-0.256-0.384 0 0-0.064-0.064-0.128-0.128l-0.192-0.192c0-0.064-0.064-0.064-0.064-0.064-0.128-0.192-0.192-0.256-0.32-0.384l-0.064-0.128c0 0-0.128-0.128-0.192-0.192l-0.128-0.192c-0.064-0.064-0.128-0.128-0.192-0.192l-0.192-0.192c-0.064-0.064-0.128-0.128-0.128-0.192l-0.128-0.192c-0.064-0.064-0.128-0.064-0.128-0.064-0.128-0.192-0.192-0.256-0.32-0.384 0 0-0.064-0.064-0.064-0.128l-0.192-0.192c-0.064-0.064-0.064-0.064-0.064-0.064-0.128-0.192-0.256-0.32-0.384-0.448L847.488 220.032c0 0-0.128-0.128-0.256-0.192L847.232 219.84c-0.128-0.192-0.256-0.32-0.384-0.448l-0.064-0.064c-0.064-0.064-0.128-0.192-0.128-0.192l-0.064-0.064c-0.32-0.384-0.64-0.704-0.96-1.088C839.552 210.752 830.656 207.04 821.76 207.04L821.76 207.04zM624.32 80.512c-13.824 0-26.624 9.152-30.656 23.04-4.928 17.024 4.8 34.752 21.824 39.68 35.072 10.24 68.48 25.408 99.392 45.248 5.376 3.456 11.392 5.056 17.28 5.056 10.56 0 20.864-5.184 27.008-14.656 9.472-14.848 5.248-34.624-9.6-44.16-1.152-0.768-2.368-1.472-3.584-2.304l0 0c-0.32-0.128-0.576-0.32-0.832-0.512l-0.064 0c-0.256-0.192-0.576-0.384-0.832-0.512l-0.064-0.064c-0.256-0.192-0.576-0.32-0.832-0.512l-0.064-0.064L743.04 130.688l-0.064-0.064c-0.192-0.128-0.32-0.256-0.512-0.32l-0.064-0.064c-0.128-0.064-0.192-0.128-0.192-0.128-0.128-0.064-0.192-0.064-0.192-0.064-0.128-0.128-0.256-0.192-0.384-0.256 0 0-0.128-0.064-0.128-0.128 0 0-0.128-0.064-0.256-0.128l-0.128-0.064c-0.128-0.064-0.256-0.128-0.384-0.192L740.672 129.28c-0.128-0.128-0.128-0.128-0.128-0.128-0.128-0.128-0.256-0.128-0.256-0.128l-0.192-0.128c0 0-0.192-0.128-0.32-0.256l-0.192-0.064c-0.064-0.064-0.128-0.064-0.128-0.064-0.128-0.128-0.192-0.128-0.192-0.128-0.128-0.128-0.256-0.192-0.384-0.256l-0.128-0.064C738.688 128 738.624 127.936 738.56 127.872l-0.128 0c-0.128-0.128-0.256-0.192-0.384-0.256L737.92 127.552c-0.064-0.064-0.128-0.128-0.256-0.192l-0.128-0.064c-0.128-0.064-0.256-0.128-0.384-0.192l-0.064-0.064c-0.128-0.064-0.192-0.128-0.32-0.192l-0.128-0.064c-0.128-0.064-0.256-0.192-0.256-0.192l-0.192-0.064c-0.064-0.064-0.192-0.128-0.192-0.128-0.128-0.128-0.192-0.128-0.192-0.128-0.32-0.192-0.576-0.32-0.832-0.448 0-0.064 0-0.064 0-0.064-0.32-0.192-0.576-0.32-0.832-0.512l-0.064 0c-0.192-0.128-0.32-0.192-0.448-0.256l0 0c0 0-0.256-0.192-0.384-0.256l-0.064 0c0 0-0.256-0.192-0.384-0.256l0 0c-0.192-0.064-0.32-0.192-0.448-0.256l-0.064 0c0 0-0.256-0.192-0.384-0.256l0 0c0 0-0.32-0.192-0.448-0.256l0 0c-0.448-0.256-0.896-0.512-1.344-0.768l0 0c-0.256-0.192-0.576-0.32-0.896-0.512l0 0c-30.016-17.152-62.272-30.848-96.128-40.768C630.336 80.96 627.328 80.512 624.32 80.512L624.32 80.512z" fill="#020202" p-id="6471"></path></svg>