<svg xmlns="http://www.w3.org/2000/svg" viewBox="0 0 128 128"><defs><style>.cls-1{opacity:0;}.cls-2{fill:#fff;}</style></defs><g id="图层_2" data-name="图层 2"><g id="图层_8" data-name="图层 8"><g class="cls-1"><rect class="cls-2" width="128" height="128"/></g><path class="cls-2" d="M64.45,15.47a3.11,3.11,0,0,0,3.11-3.11V3.2a3.11,3.11,0,1,0-6.22,0v9.16A3.11,3.11,0,0,0,64.45,15.47Z"/><path class="cls-2" d="M39.22,20a3.1,3.1,0,1,0,5.38-3.1L40,8.91A3.11,3.11,0,1,0,34.64,12Z"/><path class="cls-2" d="M15.92,33l7.94,4.58A3.1,3.1,0,1,0,27,32.21L19,27.63A3.1,3.1,0,0,0,15.92,33Z"/><path class="cls-2" d="M103.5,38a3.14,3.14,0,0,0,1.55-.42L113,33a3.1,3.1,0,1,0-3.1-5.38l-7.94,4.58A3.11,3.11,0,0,0,103.5,38Z"/><path class="cls-2" d="M85.44,21.09A3.09,3.09,0,0,0,89.68,20L94.26,12a3.11,3.11,0,1,0-5.38-3.11L84.3,16.85A3.11,3.11,0,0,0,85.44,21.09Z"/><path class="cls-2" d="M52.41,86.9a3.79,3.79,0,0,0-3.77,3.78v13.21a3.78,3.78,0,0,0,7.55,0V90.68A3.79,3.79,0,0,0,52.41,86.9Z"/><path class="cls-2" d="M89,86.9a3.79,3.79,0,0,0-3.77,3.78v13.21a3.78,3.78,0,0,0,7.55,0V90.68A3.79,3.79,0,0,0,89,86.9Z"/><path class="cls-2" d="M112.58,58A4.38,4.38,0,0,0,106,54.4L88.84,64.47h0a43.8,43.8,0,0,0-20.68-5.16h0a43.76,43.76,0,0,0-20.67,5.16h0L29.34,53.82a4.38,4.38,0,0,0-6.5,2.85L7.4,127.56H116.32ZM57.86,103a8,8,0,0,1-8,8h0a8,8,0,0,1-8-8V91.56a8,8,0,0,1,8-8h0a8,8,0,0,1,8,8Zm36.59,0a8,8,0,0,1-8,8h0a8,8,0,0,1-8-8V91.56a8,8,0,0,1,8-8h0a8,8,0,0,1,8,8Z"/></g></g></svg>