<svg xmlns="http://www.w3.org/2000/svg" viewBox="0 0 128 128"><defs><style>.cls-1,.cls-2{fill:#fff;}.cls-1{opacity:0;}</style></defs><g id="图层_2" data-name="图层 2"><g id="图层_8" data-name="图层 8"><rect class="cls-1" width="128" height="128"/><path class="cls-2" d="M99.46,70.09H28.54A26.08,26.08,0,0,0,2.46,96.17h0a26.08,26.08,0,0,0,26.08,26.07H99.46a26.08,26.08,0,0,0,26.08-26.07h0A26.08,26.08,0,0,0,99.46,70.09Zm-.88,43.39H70.05a17.32,17.32,0,1,1,0-34.63H98.58a17.32,17.32,0,1,1,0,34.63Z"/><path class="cls-2" d="M99.46,10.2H28.54A26.08,26.08,0,0,0,2.46,36.28h0A26.08,26.08,0,0,0,28.54,62.36H99.46a26.08,26.08,0,0,0,26.08-26.08h0A26.08,26.08,0,0,0,99.46,10.2Zm0,45.41H28.54a19.33,19.33,0,0,1,0-38.66H99.46a19.33,19.33,0,1,1,0,38.66Z"/><path class="cls-2" d="M57.14,19H28.61a17.32,17.32,0,0,0,0,34.64H57.14a17.32,17.32,0,0,0,0-34.64Z"/></g></g></svg>