<svg xmlns="http://www.w3.org/2000/svg" viewBox="0 0 128 128"><path fill="#ffffff" d="M64.22,25.69a2.84,2.84,0,0,0,2.84-2.84V14.49a2.84,2.84,0,1,0-5.67,0v8.36A2.84,2.84,0,0,0,64.22,25.69Z"/><path fill="#ffffff" d="M41.2,29.78A2.83,2.83,0,1,0,46.11,27L41.92,19.7A2.84,2.84,0,0,0,37,22.54Z"/><path fill="#ffffff" d="M19.93,41.7l7.24,4.18A2.84,2.84,0,1,0,30,41l-7.25-4.18a2.83,2.83,0,1,0-2.83,4.91Z"/><path fill="#ffffff" d="M99.86,46.26a2.77,2.77,0,0,0,1.41-.38l7.25-4.18a2.84,2.84,0,1,0-2.84-4.91L98.44,41a2.83,2.83,0,0,0,1.42,5.29Z"/><path fill="#ffffff" d="M83.38,30.82a2.79,2.79,0,0,0,1.41.38,2.83,2.83,0,0,0,2.46-1.42l4.18-7.24a2.84,2.84,0,0,0-4.91-2.84L82.34,27A2.83,2.83,0,0,0,83.38,30.82Z"/><path fill="#ffffff" d="M53.24,90.89a3.45,3.45,0,0,0-3.45,3.44v12.06a3.45,3.45,0,1,0,6.89,0V94.33A3.45,3.45,0,0,0,53.24,90.89Z"/><path fill="#ffffff" d="M86.63,90.89a3.45,3.45,0,0,0-3.44,3.44v12.06a3.45,3.45,0,1,0,6.89,0V94.33A3.45,3.45,0,0,0,86.63,90.89Z"/><path fill="#ffffff" d="M108.15,64.46a4,4,0,0,0-6-3.23L86.48,70.42h0a39.94,39.94,0,0,0-18.87-4.7h0a40,40,0,0,0-18.87,4.7h0L32.18,60.69a4,4,0,0,0-5.93,2.6L12.15,128h99.42ZM58.21,105.58a7.3,7.3,0,1,1-14.59,0V95.14a7.3,7.3,0,1,1,14.59,0Zm33.4,0a7.3,7.3,0,0,1-14.6,0V95.14a7.3,7.3,0,0,1,14.6,0Z"/></svg>
